<svg id="help" viewBox="0 0 20 20" width="100%" height="100%">
  <circle id="Oval" stroke="#babcbe" fill="#FFFFFF" cx="10" cy="10" r="9.5"></circle>
  <path d="M9,17 L11,17 L11,15 L9,15 L9,17 Z M8.96041438,13 C8.96064324,12.9691887 8.95991125,12.9499379 8.96041438,12.9197998 C8.9609175,12.8896617 8.88097146,11.4151248 9.0680542,11.0821042 C9.26157748,10.7349149 9.62895056,10.3551856 10.2943115,9.83068848 C10.7671468,9.40273592 11.0971508,9.12800413 11.3754652,8.73718412 C11.6537796,8.34543579 11.7934356,7.91284167 11.7934356,7.43940175 C11.7934356,6.89262506 11.6358238,6.46931408 11.3176077,6.16761217 C11.0003892,5.86591026 10.5465072,5.71552347 9.9589546,5.71552347 C9.45619309,5.71552347 8.96041438,5.81739114 8.66015403,6.05126953 C8.35989368,6.28514792 8.11334229,6.4822998 7.97808838,6.98840332 L6.0276389,6.98840332 C6.00868558,5.98582467 6.34485747,5.40175348 7.08603168,4.84105209 C7.82820343,4.2803507 8.78484686,4 9.9589546,4 C11.229824,4 12.2233765,4.30170191 12.9346244,4.90417741 C13.6458723,5.50665291 14,6.34399175 14,7.41433729 C14,8.13006704 13.8370759,8.71038492 13.3911743,9.32214355 C12.9462703,9.93297388 12.7061611,10.1710583 12.027832,10.6779175 C11.6826823,10.9591965 11.0003892,11.3145142 11.0003892,11.6798096 C11.0003892,12.045105 11.0003892,12.5098504 11.0003892,13 L8.96041438,13 Z" id="Fill-3" fill="#7b7f7f"></path>
</svg>
