<svg xmlns='http://www.w3.org/2000/svg' xmlns:xlink='http://www.w3.org/1999/xlink' style='display: none'>
<symbol id="branding-strip" viewBox="undefined" preserveAspectRatio="undefined">
<path d="M-23,538L-60,551L25,535Z" fill="#627fa1" stroke="#627fa1" stroke-width="1.51"/><path d="M25,535L-60,551L54,534Z" fill="#3b7199" stroke="#3b7199" stroke-width="1.51"/><path d="M42,365L27,408L55,419Z" fill="#0b6fad" stroke="#0b6fad" stroke-width="1.51"/><path d="M42,68L43,85L56,23Z" fill="#849dc4" stroke="#849dc4" stroke-width="1.51"/><path d="M43,85L32,95L59,137Z" fill="#7b99c2" stroke="#7b99c2" stroke-width="1.51"/><path d="M56,23L43,85L59,137Z" fill="#7e96bc" stroke="#7e96bc" stroke-width="1.51"/><path d="M30,-10L56,23L60,-27Z" fill="#8ea4c7" stroke="#8ea4c7" stroke-width="1.51"/><path d="M-37,-36L-29,-37L61,-51Z" fill="#bfcfe5" stroke="#bfcfe5" stroke-width="1.51"/><path d="M-29,-37L33,-36L61,-51Z" fill="#a1bedb" stroke="#a1bedb" stroke-width="1.51"/><path d="M60,-27L56,23L63,153Z" fill="#7f94b4" stroke="#7f94b4" stroke-width="1.51"/><path d="M56,23L59,137L63,153Z" fill="#748db0" stroke="#748db0" stroke-width="1.51"/><path d="M61,-51L60,-27L63,153Z" fill="#8295b3" stroke="#8295b3" stroke-width="1.51"/><path d="M42,302L21,331L64,348Z" fill="#257db3" stroke="#257db3" stroke-width="1.51"/><path d="M42,365L55,419L64,348Z" fill="#136ca3" stroke="#136ca3" stroke-width="1.51"/><path d="M55,267L42,302L64,348Z" fill="#2f79aa" stroke="#2f79aa" stroke-width="1.51"/><path d="M57,502L54,534L64,473Z" fill="#045382" stroke="#045382" stroke-width="1.51"/><path d="M54,188L10,203L65,229Z" fill="#5b8dbd" stroke="#5b8dbd" stroke-width="1.51"/><path d="M10,203L31,244L65,229Z" fill="#5891c3" stroke="#5891c3" stroke-width="1.51"/><path d="M31,244L55,267L65,229Z" fill="#4a84b3" stroke="#4a84b3" stroke-width="1.51"/><path d="M63,153L54,188L65,229Z" fill="#5a81a8" stroke="#5a81a8" stroke-width="1.51"/><path d="M55,267L64,348L65,229Z" fill="#3875a0" stroke="#3875a0" stroke-width="1.51"/><path d="M27,437L64,473L68,440Z" fill="#046097" stroke="#046097" stroke-width="1.51"/><path d="M55,419L27,437L68,440Z" fill="#04649e" stroke="#04649e" stroke-width="1.51"/><path d="M64,348L55,419L68,440Z" fill="#075e93" stroke="#075e93" stroke-width="1.51"/><path d="M65,229L64,348L68,440Z" fill="#1c6794" stroke="#1c6794" stroke-width="1.51"/><path d="M21,32L42,68L56,23Z" fill="#8ba4cd" stroke="#8ba4cd" stroke-width="1.51"/><path d="M32,95L22,135L59,137Z" fill="#799bc9" stroke="#799bc9" stroke-width="1.51"/><path d="M33,-36L60,-27L61,-51Z" fill="#91a5c5" stroke="#91a5c5" stroke-width="1.51"/><path d="M12,153L54,188L63,153Z" fill="#6b93c0" stroke="#6b93c0" stroke-width="1.51"/><path d="M10,471L57,502L64,473Z" fill="#046199" stroke="#046199" stroke-width="1.51"/><path d="M27,437L10,471L64,473Z" fill="#0e6ca6" stroke="#0e6ca6" stroke-width="1.51"/><path d="M21,331L42,365L64,348Z" fill="#1e79b1" stroke="#1e79b1" stroke-width="1.51"/><path d="M59,137L22,135L63,153Z" fill="#6f92bd" stroke="#6f92bd" stroke-width="1.51"/><path d="M22,135L12,153L63,153Z" fill="#759dca" stroke="#759dca" stroke-width="1.51"/><path d="M24,291L42,302L55,267Z" fill="#3c84b9" stroke="#3c84b9" stroke-width="1.51"/><path d="M25,535L54,534L57,502Z" fill="#045889" stroke="#045889" stroke-width="1.51"/><path d="M31,244L29,261L55,267Z" fill="#498abe" stroke="#498abe" stroke-width="1.51"/><path d="M10,471L11,508L57,502Z" fill="#1a6ea1" stroke="#1a6ea1" stroke-width="1.51"/><path d="M33,-36L30,-10L60,-27Z" fill="#94abcf" stroke="#94abcf" stroke-width="1.51"/><path d="M11,508L25,535L57,502Z" fill="#116497" stroke="#116497" stroke-width="1.51"/><path d="M29,261L24,291L55,267Z" fill="#438abe" stroke="#438abe" stroke-width="1.51"/><path d="M30,-10L21,32L56,23Z" fill="#92abd2" stroke="#92abd2" stroke-width="1.51"/><path d="M12,153L10,203L54,188Z" fill="#6fa0ca" stroke="#6fa0ca" stroke-width="1.51"/><path d="M27,408L27,437L55,419Z" fill="#086fad" stroke="#086fad" stroke-width="1.51"/><path d="M14,363L27,408L42,365Z" fill="#237fb8" stroke="#237fb8" stroke-width="1.51"/><path d="M21,331L14,363L42,365Z" fill="#2c85bb" stroke="#2c85bb" stroke-width="1.51"/><path d="M24,291L21,331L42,302Z" fill="#398bbe" stroke="#398bbe" stroke-width="1.51"/><path d="M7,56L32,95L42,68Z" fill="#8cacd2" stroke="#8cacd2" stroke-width="1.51"/><path d="M21,32L7,56L42,68Z" fill="#92b2d5" stroke="#92b2d5" stroke-width="1.51"/><path d="M42,68L32,95L43,85Z" fill="#839fca" stroke="#839fca" stroke-width="1.51"/><path d="M10,471L-2,484L11,508Z" fill="#407dac" stroke="#407dac" stroke-width="1.51"/><path d="M-3,22L21,32L30,-10Z" fill="#a1bedb" stroke="#a1bedb" stroke-width="1.51"/><path d="M-14,0L-3,22L30,-10Z" fill="#b1c7e0" stroke="#b1c7e0" stroke-width="1.51"/><path d="M10,203L-23,237L31,244Z" fill="#76a9cf" stroke="#76a9cf" stroke-width="1.51"/><path d="M7,56L-11,70L32,95Z" fill="#9fbad9" stroke="#9fbad9" stroke-width="1.51"/><path d="M-7,118L22,135L32,95Z" fill="#8cb0d4" stroke="#8cb0d4" stroke-width="1.51"/><path d="M-14,0L30,-10L33,-36Z" fill="#a4c0dc" stroke="#a4c0dc" stroke-width="1.51"/><path d="M-29,-37L-14,0L33,-36Z" fill="#bfcfe5" stroke="#bfcfe5" stroke-width="1.51"/><path d="M-10,326L21,331L24,291Z" fill="#4d98c4" stroke="#4d98c4" stroke-width="1.51"/><path d="M14,363L-13,415L27,408Z" fill="#418abe" stroke="#418abe" stroke-width="1.51"/><path d="M27,408L-13,415L27,437Z" fill="#3582b7" stroke="#3582b7" stroke-width="1.51"/><path d="M-11,70L-7,118L32,95Z" fill="#a1bbda" stroke="#a1bbda" stroke-width="1.51"/><path d="M-16,165L10,203L12,153Z" fill="#8eb3d5" stroke="#8eb3d5" stroke-width="1.51"/><path d="M-17,265L24,291L29,261Z" fill="#5e9ec9" stroke="#5e9ec9" stroke-width="1.51"/><path d="M-17,265L29,261L31,244Z" fill="#609fc9" stroke="#609fc9" stroke-width="1.51"/><path d="M-23,237L-17,265L31,244Z" fill="#7dacd1" stroke="#7dacd1" stroke-width="1.51"/><path d="M-17,447L10,471L27,437Z" fill="#4283b3" stroke="#4283b3" stroke-width="1.51"/><path d="M-21,292L-10,326L24,291Z" fill="#6aa3cc" stroke="#6aa3cc" stroke-width="1.51"/><path d="M-13,415L-17,447L27,437Z" fill="#518abb" stroke="#518abb" stroke-width="1.51"/><path d="M-14,359L-13,415L14,363Z" fill="#5d95c5" stroke="#5d95c5" stroke-width="1.51"/><path d="M-10,326L14,363L21,331Z" fill="#4c96c4" stroke="#4c96c4" stroke-width="1.51"/><path d="M-17,265L-21,292L24,291Z" fill="#74a8ce" stroke="#74a8ce" stroke-width="1.51"/><path d="M11,508L-17,514L25,535Z" fill="#3d76a0" stroke="#3d76a0" stroke-width="1.51"/><path d="M-17,514L-23,538L25,535Z" fill="#4f7aa1" stroke="#4f7aa1" stroke-width="1.51"/><path d="M-10,326L-14,359L14,363Z" fill="#609bc8" stroke="#609bc8" stroke-width="1.51"/><path d="M-3,22L7,56L21,32Z" fill="#a7c1dd" stroke="#a7c1dd" stroke-width="1.51"/><path d="M-7,118L12,153L22,135Z" fill="#8fb3d4" stroke="#8fb3d4" stroke-width="1.51"/><path d="M-11,70L-28,92L-7,118Z" fill="#bcc7e1" stroke="#bcc7e1" stroke-width="1.51"/><path d="M-17,202L-23,237L10,203Z" fill="#92b4d6" stroke="#92b4d6" stroke-width="1.51"/><path d="M-16,165L-17,202L10,203Z" fill="#97b7d7" stroke="#97b7d7" stroke-width="1.51"/><path d="M-7,118L-16,165L12,153Z" fill="#9ebad9" stroke="#9ebad9" stroke-width="1.51"/><path d="M-2,484L-17,514L11,508Z" fill="#4f7faa" stroke="#4f7faa" stroke-width="1.51"/><path d="M-17,447L-2,484L10,471Z" fill="#5286b4" stroke="#5286b4" stroke-width="1.51"/><path d="M-41,137L-16,165L-7,118Z" fill="#b6c4df" stroke="#b6c4df" stroke-width="1.51"/><path d="M-3,22L-11,70L7,56Z" fill="#b2c6df" stroke="#b2c6df" stroke-width="1.51"/><path d="M-47,363L-39,412L-14,359Z" fill="#87a6cf" stroke="#87a6cf" stroke-width="1.51"/><path d="M-14,359L-39,412L-13,415Z" fill="#769cc9" stroke="#769cc9" stroke-width="1.51"/><path d="M-62,69L-11,70L-3,22Z" fill="#cfd2e6" stroke="#cfd2e6" stroke-width="1.51"/><path d="M-64,13L-62,69L-3,22Z" fill="#e3dfee" stroke="#e3dfee" stroke-width="1.51"/><path d="M-17,447L-48,472L-2,484Z" fill="#6f90ba" stroke="#6f90ba" stroke-width="1.51"/><path d="M-48,472L-17,514L-2,484Z" fill="#6d8cb4" stroke="#6d8cb4" stroke-width="1.51"/><path d="M-14,0L-64,13L-3,22Z" fill="#d8d9eb" stroke="#d8d9eb" stroke-width="1.51"/><path d="M-48,472L-38,517L-17,514Z" fill="#7a90b4" stroke="#7a90b4" stroke-width="1.51"/><path d="M-38,431L-17,447L-13,415Z" fill="#7396c2" stroke="#7396c2" stroke-width="1.51"/><path d="M-48,342L-14,359L-10,326Z" fill="#80a8cf" stroke="#80a8cf" stroke-width="1.51"/><path d="M-28,92L-49,103L-7,118Z" fill="#c8cde4" stroke="#c8cde4" stroke-width="1.51"/><path d="M-49,103L-41,137L-7,118Z" fill="#c9cde4" stroke="#c9cde4" stroke-width="1.51"/><path d="M-52,206L-17,202L-16,165Z" fill="#b0c2de" stroke="#b0c2de" stroke-width="1.51"/><path d="M-29,-37L-37,-36L-14,0Z" fill="#dcdcec" stroke="#dcdcec" stroke-width="1.51"/><path d="M-21,292L-57,298L-10,326Z" fill="#90b2d4" stroke="#90b2d4" stroke-width="1.51"/><path d="M-57,298L-48,342L-10,326Z" fill="#94b4d6" stroke="#94b4d6" stroke-width="1.51"/><path d="M-52,206L-23,237L-17,202Z" fill="#acc0dd" stroke="#acc0dd" stroke-width="1.51"/><path d="M-62,69L-28,92L-11,70Z" fill="#d4d3e8" stroke="#d4d3e8" stroke-width="1.51"/><path d="M-38,517L-23,538L-17,514Z" fill="#6d87aa" stroke="#6d87aa" stroke-width="1.51"/><path d="M-23,237L-46,255L-17,265Z" fill="#9ebada" stroke="#9ebada" stroke-width="1.51"/><path d="M-54,156L-52,206L-16,165Z" fill="#c0cbe3" stroke="#c0cbe3" stroke-width="1.51"/><path d="M-37,-36L-56,-26L-14,0Z" fill="#e4e1ef" stroke="#e4e1ef" stroke-width="1.51"/><path d="M-48,342L-47,363L-14,359Z" fill="#8dadd2" stroke="#8dadd2" stroke-width="1.51"/><path d="M-39,412L-38,431L-13,415Z" fill="#7e9cc8" stroke="#7e9cc8" stroke-width="1.51"/><path d="M-41,137L-54,156L-16,165Z" fill="#c4cce4" stroke="#c4cce4" stroke-width="1.51"/><path d="M-56,-26L-64,13L-14,0Z" fill="#e9e5f1" stroke="#e9e5f1" stroke-width="1.51"/><path d="M-52,206L-58,224L-23,237Z" fill="#b6c8e1" stroke="#b6c8e1" stroke-width="1.51"/><path d="M-46,255L-21,292L-17,265Z" fill="#98b7d7" stroke="#98b7d7" stroke-width="1.51"/><path d="M-38,431L-48,472L-17,447Z" fill="#8099c2" stroke="#8099c2" stroke-width="1.51"/><path d="M-46,255L-57,298L-21,292Z" fill="#a2bddb" stroke="#a2bddb" stroke-width="1.51"/><path d="M-38,517L-60,551L-23,538Z" fill="#7a8ca9" stroke="#7a8ca9" stroke-width="1.51"/><path d="M-58,224L-46,255L-23,237Z" fill="#b0c4df" stroke="#b0c4df" stroke-width="1.51"/><path d="M-62,69L-49,103L-28,92Z" fill="#dcdaeb" stroke="#dcdaeb" stroke-width="1.51"/><path d="M-48,472L-60,551L-38,517Z" fill="#8496b4" stroke="#8496b4" stroke-width="1.51"/><path d="M-39,412L-48,472L-38,431Z" fill="#879fc7" stroke="#879fc7" stroke-width="1.51"/><path d="M-47,363L-48,472L-39,412Z" fill="#8ba5cd" stroke="#8ba5cd" stroke-width="1.51"/><path d="M-49,103L-54,156L-41,137Z" fill="#d2d5e8" stroke="#d2d5e8" stroke-width="1.51"/><path d="M-57,298L-60,551L-48,472Z" fill="#90a7cb" stroke="#90a7cb" stroke-width="1.51"/><path d="M-57,298L-48,472L-47,363Z" fill="#95b0d4" stroke="#95b0d4" stroke-width="1.51"/><path d="M-58,224L-57,298L-46,255Z" fill="#b2c8e1" stroke="#b2c8e1" stroke-width="1.51"/><path d="M-48,342L-57,298L-47,363Z" fill="#9cbad9" stroke="#9cbad9" stroke-width="1.51"/><path d="M-62,69L-54,156L-49,103Z" fill="#dcdcec" stroke="#dcdcec" stroke-width="1.51"/><path d="M-54,156L-58,224L-52,206Z" fill="#c5d1e6" stroke="#c5d1e6" stroke-width="1.51"/><path d="M-62,69L-58,224L-54,156Z" fill="#d4d8ea" stroke="#d4d8ea" stroke-width="1.51"/></symbol>
<symbol id="logo" viewBox="0 0 227 60.8" preserveAspectRatio="xMinYMid meet">
  <path fill="#009ADE" d="M5,32.9h16.3v3.5H0.5V3H5V32.9z"/>
  <path fill="#009ADE" d="M24.6,23.8c0-3.7,1-6.7,3-9.1c2-2.4,4.7-3.6,8.1-3.6c3.4,0,6.2,1.2,8.2,3.6s3,5.4,3,9.1v0.5
    c0,3.7-1,6.7-3,9.1c-2,2.4-4.7,3.5-8.1,3.5c-3.4,0-6.1-1.2-8.1-3.5c-2-2.4-3-5.4-3-9.1V23.8z M29.1,24.3c0,2.6,0.6,4.8,1.7,6.5
    c1.1,1.7,2.8,2.6,4.9,2.6c2.2,0,3.8-0.9,4.9-2.6c1.1-1.7,1.7-3.9,1.7-6.5v-0.5c0-2.6-0.6-4.8-1.7-6.5c-1.1-1.7-2.8-2.6-4.9-2.6
    c-2.2,0-3.8,0.9-4.9,2.6c-1.1,1.7-1.7,3.9-1.7,6.5V24.3z"/>
  <path fill="#009ADE" d="M64.1,15.6l-2.3-0.1c-1.2,0-2.2,0.3-3,0.8c-0.8,0.6-1.4,1.4-1.9,2.4v17.7h-4.5V11.6h4l0.4,3.6
    c0.7-1.3,1.6-2.3,2.6-3s2.2-1.1,3.6-1.1c0.3,0,0.7,0,1,0.1c0.3,0.1,0.6,0.1,0.8,0.2L64.1,15.6z"/>
  <path fill="#009ADE" d="M78.6,36.9c-3.6,0-6.3-1.1-8.3-3.4c-2-2.3-3-5.3-3-9v-1c0-3.6,1-6.5,3.1-8.8c2.1-2.3,4.6-3.5,7.5-3.5
    c3.3,0,5.8,1,7.5,3.1c1.7,2.1,2.5,4.8,2.5,8.2v2.4H72L72,25c0,2.5,0.5,4.5,1.7,6.1c1.1,1.6,2.8,2.3,5,2.3c1.5,0,2.9-0.2,4-0.7
    s2.1-1,3-1.8l1.8,2.9c-0.9,0.9-2.1,1.6-3.5,2.2C82.4,36.6,80.7,36.9,78.6,36.9z M77.9,14.7c-1.6,0-2.9,0.6-3.9,1.8
    s-1.7,2.8-1.9,4.7l0,0.1h11.2v-0.4c0-1.8-0.4-3.3-1.3-4.5C81.2,15.3,79.8,14.7,77.9,14.7z"/>
  <path fill="#083245" d="M98.6,36.4H94V3h4.5V36.4z"/>
  <path fill="#083245" d="M127.4,24.9c0,3.6-0.9,6.5-2.6,8.7c-1.7,2.2-4.1,3.3-7.1,3.3c-1.5,0-2.9-0.3-4-0.8
    c-1.2-0.5-2.1-1.3-2.9-2.3V46h-4.5V11.6h3.5l0.7,3.2c0.8-1.2,1.8-2.1,3-2.7s2.6-0.9,4.2-0.9c3.1,0,5.5,1.2,7.2,3.7
    c1.7,2.4,2.6,5.7,2.6,9.7V24.9z M122.9,24.5c0-2.8-0.6-5.1-1.7-6.9s-2.7-2.7-4.9-2.7c-1.3,0-2.4,0.3-3.3,0.9
    c-0.9,0.6-1.7,1.4-2.2,2.4v12c0.6,1,1.3,1.8,2.2,2.4c0.9,0.6,2,0.9,3.4,0.9c2.1,0,3.8-0.8,4.9-2.4c1.1-1.6,1.7-3.6,1.7-6.1V24.5z"/>
  <path fill="#083245" d="M147.4,29.7c0-1-0.4-1.8-1.1-2.4s-2.2-1.2-4.3-1.7c-2.9-0.6-5.2-1.5-6.7-2.6c-1.6-1.1-2.4-2.6-2.4-4.5
    c0-2,0.9-3.7,2.6-5.2c1.7-1.4,3.9-2.2,6.7-2.2c2.8,0,5.1,0.8,6.8,2.3c1.7,1.5,2.6,3.3,2.5,5.3l0,0.1h-4.3c0-1.1-0.5-2-1.4-2.9
    c-0.9-0.9-2.1-1.3-3.6-1.3c-1.6,0-2.8,0.4-3.6,1.1c-0.8,0.7-1.2,1.6-1.2,2.6c0,1,0.3,1.7,1,2.3c0.7,0.5,2.1,1,4.2,1.5
    c3,0.6,5.4,1.6,6.9,2.7c1.6,1.2,2.4,2.7,2.4,4.6c0,2.2-0.9,4-2.7,5.4c-1.8,1.4-4.1,2.1-7,2.1c-3.2,0-5.7-0.8-7.5-2.4
    s-2.7-3.5-2.6-5.6l0-0.1h4.3c0.1,1.6,0.7,2.8,1.8,3.5c1.1,0.7,2.4,1.1,3.9,1.1c1.6,0,2.9-0.3,3.8-1
    C146.9,31.7,147.4,30.8,147.4,29.7z"/>
  <path fill="#083245" d="M162.4,5.2h-4.5V0.6h4.5V5.2z M162.4,36.4h-4.5V11.6h4.5V36.4z"/>
  <path fill="#083245" d="M173.4,11.6l0.3,3.3c0.8-1.2,1.8-2.1,3.1-2.7c1.2-0.6,2.7-1,4.3-1s3.1,0.4,4.3,1.1s2.1,1.9,2.7,3.4
    c0.8-1.4,1.8-2.5,3.1-3.4c1.3-0.8,2.8-1.2,4.5-1.2c2.5,0,4.5,0.9,6,2.6c1.5,1.7,2.2,4.3,2.2,7.8v14.8h-4.5V21.5
    c0-2.4-0.4-4.2-1.3-5.2s-2.1-1.5-3.8-1.5c-1.5,0-2.8,0.5-3.7,1.6c-1,1.1-1.5,2.4-1.7,4.1v0.2v15.8h-4.5V21.5c0-2.3-0.4-4-1.3-5.1
    s-2.1-1.6-3.7-1.6c-1.4,0-2.5,0.3-3.4,0.8c-0.9,0.6-1.6,1.4-2,2.4v18.4h-4.5V11.6H173.4z"/>
  <path fill="#083245" d="M128.4,57.5c-0.1-0.3-0.1-0.5-0.1-0.7s0-0.4-0.1-0.6c-0.3,0.4-0.7,0.7-1.1,1s-1,0.4-1.5,0.4
    c-0.9,0-1.6-0.2-2-0.7s-0.7-1.1-0.7-1.9c0-0.8,0.3-1.4,1-1.9s1.5-0.7,2.7-0.7h1.7v-0.8c0-0.5-0.2-0.9-0.5-1.2s-0.7-0.4-1.3-0.4
    c-0.5,0-0.9,0.1-1.2,0.4s-0.5,0.5-0.5,0.9l-1.5,0l0,0c0-0.6,0.3-1.2,0.9-1.7s1.4-0.8,2.4-0.8c1,0,1.7,0.2,2.3,0.7s0.9,1.2,0.9,2.1
    v4.1c0,0.3,0,0.6,0,0.9s0.1,0.6,0.2,0.8H128.4z M125.8,56.4c0.6,0,1.1-0.1,1.5-0.4s0.7-0.6,0.9-1v-1.4h-1.7c-0.6,0-1.1,0.2-1.5,0.5
    s-0.6,0.7-0.6,1.1c0,0.4,0.1,0.7,0.4,0.9S125.4,56.4,125.8,56.4z"/>
  <path fill="#083245" d="M137.6,46.9h-1.5v-1.6h1.5V46.9z M137.6,57.5h-1.5v-8.5h1.5V57.5z"/>
  <path fill="#083245" d="M147.2,53.6c0,1.2-0.3,2.2-0.9,2.9s-1.4,1.1-2.4,1.1c-0.5,0-1-0.1-1.4-0.3s-0.7-0.4-1-0.8v4.1H140V49.1h1.2
    l0.2,1.1c0.3-0.4,0.6-0.7,1-0.9s0.9-0.3,1.4-0.3c1,0,1.9,0.4,2.4,1.2s0.9,1.9,0.9,3.3V53.6z M145.7,53.4c0-1-0.2-1.7-0.6-2.4
    s-0.9-0.9-1.7-0.9c-0.4,0-0.8,0.1-1.1,0.3s-0.6,0.5-0.8,0.8v4.1c0.2,0.3,0.4,0.6,0.8,0.8s0.7,0.3,1.1,0.3c0.7,0,1.3-0.3,1.7-0.8
    s0.6-1.2,0.6-2.1V53.4z"/>
  <path fill="#083245" d="M154,55.2c0-0.3-0.1-0.6-0.4-0.8s-0.7-0.4-1.5-0.6c-1-0.2-1.8-0.5-2.3-0.9s-0.8-0.9-0.8-1.5
    c0-0.7,0.3-1.3,0.9-1.8s1.3-0.7,2.3-0.7c1,0,1.7,0.3,2.3,0.8s0.9,1.1,0.9,1.8l0,0h-1.5c0-0.4-0.2-0.7-0.5-1s-0.7-0.4-1.2-0.4
    c-0.5,0-0.9,0.1-1.2,0.4s-0.4,0.5-0.4,0.9c0,0.3,0.1,0.6,0.3,0.8s0.7,0.3,1.4,0.5c1,0.2,1.8,0.5,2.4,0.9s0.8,0.9,0.8,1.6
    c0,0.8-0.3,1.4-0.9,1.8s-1.4,0.7-2.4,0.7c-1.1,0-1.9-0.3-2.5-0.8s-0.9-1.2-0.9-1.9l0,0h1.5c0,0.5,0.2,0.9,0.6,1.2s0.8,0.4,1.3,0.4
    c0.5,0,1-0.1,1.3-0.3S154,55.6,154,55.2z"/>
  <path fill="#083245" d="M162.8,56.3c-0.3,0.5-0.6,0.8-1,1s-0.9,0.4-1.4,0.4c-0.9,0-1.6-0.3-2.2-0.9s-0.8-1.5-0.8-2.8v-5h1.5v5
    c0,0.9,0.1,1.5,0.4,1.9s0.7,0.5,1.2,0.5c0.5,0,1-0.1,1.4-0.3s0.6-0.5,0.8-0.9v-6.1h1.5v8.5h-1.4L162.8,56.3z"/>
  <path fill="#083245" d="M167.9,49.1l0.1,1.1c0.3-0.4,0.6-0.7,1.1-0.9s0.9-0.3,1.5-0.3s1,0.1,1.4,0.4s0.7,0.7,0.9,1.2
    c0.3-0.5,0.6-0.9,1.1-1.1s0.9-0.4,1.5-0.4c0.9,0,1.5,0.3,2,0.9s0.8,1.5,0.8,2.7v5.1h-1.5v-5.1c0-0.8-0.1-1.4-0.4-1.8
    s-0.7-0.5-1.3-0.5c-0.5,0-1,0.2-1.3,0.5s-0.5,0.8-0.6,1.4v0.1v5.4h-1.5v-5.1c0-0.8-0.1-1.4-0.4-1.7s-0.7-0.6-1.3-0.6
    c-0.5,0-0.9,0.1-1.2,0.3s-0.5,0.5-0.7,0.8v6.3h-1.5v-8.5H167.9z"/>
  <path fill="#083245" d="M186.2,57.5h-1.5V45.3h1.5V57.5z"/>
  <path fill="#083245" d="M188.2,53.2c0-1.2,0.3-2.3,1-3.1s1.6-1.2,2.8-1.2c1.2,0,2.1,0.4,2.8,1.2s1,1.8,1,3.1v0.2
    c0,1.3-0.3,2.3-1,3.1s-1.6,1.2-2.8,1.2s-2.1-0.4-2.8-1.2s-1-1.8-1-3.1V53.2z M189.7,53.4c0,0.9,0.2,1.6,0.6,2.2s0.9,0.9,1.7,0.9
    c0.7,0,1.3-0.3,1.7-0.9s0.6-1.3,0.6-2.2v-0.2c0-0.9-0.2-1.6-0.6-2.2s-0.9-0.9-1.7-0.9c-0.7,0-1.3,0.3-1.7,0.9s-0.6,1.3-0.6,2.2
    V53.4z"/>
  <path fill="#083245" d="M201.6,50.4l-0.8,0c-0.4,0-0.7,0.1-1,0.3s-0.5,0.5-0.6,0.8v6h-1.5v-8.5h1.4l0.1,1.2c0.2-0.4,0.5-0.8,0.9-1
    s0.8-0.4,1.2-0.4c0.1,0,0.2,0,0.3,0s0.2,0,0.3,0.1L201.6,50.4z"/>
  <path fill="#083245" d="M206.6,57.7c-1.2,0-2.2-0.4-2.8-1.2s-1-1.8-1-3.1v-0.3c0-1.2,0.4-2.2,1.1-3s1.6-1.2,2.6-1.2
    c1.1,0,2,0.4,2.5,1.1s0.8,1.6,0.8,2.8v0.8h-5.4l0,0c0,0.8,0.2,1.5,0.6,2.1s0.9,0.8,1.7,0.8c0.5,0,1-0.1,1.4-0.2s0.7-0.4,1-0.6
    l0.6,1c-0.3,0.3-0.7,0.5-1.2,0.7S207.3,57.7,206.6,57.7z M206.3,50.1c-0.5,0-1,0.2-1.3,0.6s-0.6,0.9-0.6,1.6l0,0h3.8v-0.1
    c0-0.6-0.2-1.1-0.5-1.5S207,50.1,206.3,50.1z"/>
  <path fill="#083245" d="M212.8,49.1l0.1,1.1c0.3-0.4,0.6-0.7,1.1-0.9s0.9-0.3,1.5-0.3s1,0.1,1.4,0.4s0.7,0.7,0.9,1.2
    c0.3-0.5,0.6-0.9,1.1-1.1s0.9-0.4,1.5-0.4c0.9,0,1.5,0.3,2,0.9s0.8,1.5,0.8,2.7v5.1h-1.5v-5.1c0-0.8-0.1-1.4-0.4-1.8
    s-0.7-0.5-1.3-0.5c-0.5,0-1,0.2-1.3,0.5s-0.5,0.8-0.6,1.4v0.1v5.4h-1.5v-5.1c0-0.8-0.1-1.4-0.4-1.7s-0.7-0.6-1.3-0.6
    c-0.5,0-0.9,0.1-1.2,0.3s-0.5,0.5-0.7,0.8v6.3h-1.5v-8.5H212.8z"/>
</symbol>
<symbol id="product" viewBox="0 0 232.6 20.9" preserveAspectRatio="xMinYMid meet">
	<path fill="#CFCFD1" d="M3.8,12.8v7.8H0V0h8.8c2.5,0,4.5,0.6,5.9,1.8c1.4,1.2,2.1,2.7,2.1,4.6c0,1.9-0.7,3.5-2.1,4.7
		c-1.4,1.2-3.4,1.7-5.9,1.7H3.8z M3.8,10h5c1.4,0,2.5-0.3,3.2-1S13,7.5,13,6.4c0-1-0.4-1.9-1.1-2.6c-0.7-0.7-1.8-1-3.2-1h-5V10z"/>
	<path fill="#CFCFD1" d="M26.5,13.6v7.1h-3.2v-17h6.5c2.1,0,3.7,0.4,4.9,1.3s1.7,2.1,1.7,3.7c0,0.9-0.3,1.6-0.8,2.3
		c-0.5,0.6-1.2,1.1-2.2,1.5c1.1,0.3,1.8,0.8,2.3,1.5c0.5,0.7,0.7,1.5,0.7,2.5v1.4c0,0.5,0.1,1,0.2,1.5c0.1,0.5,0.4,0.8,0.7,1.1v0.3
		h-3.2c-0.3-0.3-0.6-0.7-0.7-1.2c-0.1-0.5-0.1-1.1-0.1-1.6v-1.4c0-0.9-0.3-1.6-0.8-2.1c-0.6-0.5-1.3-0.8-2.3-0.8H26.5z M26.5,11.3
		h3.2c1.3,0,2.2-0.2,2.8-0.7c0.6-0.4,0.9-1.1,0.9-2c0-0.9-0.3-1.5-0.9-2c-0.6-0.5-1.4-0.7-2.6-0.7h-3.4V11.3z"/>
	<path fill="#CFCFD1" d="M57.8,13.6c0,2.1-0.7,3.8-2.2,5.2s-3.3,2.1-5.7,2.1c-2.3,0-4.1-0.7-5.5-2.1s-2.1-3.1-2.1-5.2v-3.1
		c0-2.1,0.7-3.8,2.1-5.2c1.4-1.4,3.3-2.1,5.5-2.1c2.3,0,4.2,0.7,5.6,2.1c1.5,1.4,2.2,3.1,2.2,5.2V13.6z M54.6,10.6
		c0-1.4-0.4-2.6-1.3-3.5c-0.8-0.9-2-1.4-3.4-1.4c-1.4,0-2.5,0.5-3.3,1.4c-0.8,0.9-1.2,2.1-1.2,3.5v3.1c0,1.4,0.4,2.6,1.2,3.5
		c0.8,0.9,1.9,1.4,3.3,1.4c1.4,0,2.6-0.5,3.4-1.4c0.8-0.9,1.3-2.1,1.3-3.5V10.6z"/>
	<path fill="#CFCFD1" d="M63.8,20.6v-17H70c2.4,0,4.3,0.7,5.8,2s2.3,3.1,2.3,5.2v2.6c0,2.1-0.8,3.9-2.3,5.2c-1.5,1.3-3.5,2-5.8,2
		H63.8z M66.9,5.9v12.5H70c1.5,0,2.7-0.5,3.6-1.4c0.9-0.9,1.3-2.1,1.3-3.6v-2.6c0-1.4-0.4-2.6-1.3-3.5c-0.9-0.9-2.1-1.4-3.6-1.4
		H66.9z"/>
	<path fill="#CFCFD1" d="M98.7,3.6v11.2c0,1.9-0.7,3.4-2.1,4.4s-3.2,1.6-5.3,1.6c-2.1,0-3.9-0.5-5.2-1.6s-2-2.6-2-4.4V3.6h3.2v11.2
		c0,1.2,0.4,2.1,1.1,2.8c0.8,0.7,1.7,1,3,1c1.3,0,2.3-0.3,3.1-1c0.8-0.7,1.2-1.6,1.2-2.8V3.6H98.7z"/>
	<path fill="#CFCFD1" d="M118.9,15.1L118.9,15.1c0.1,1.8-0.6,3.2-1.8,4.2c-1.3,1.1-3,1.6-5.2,1.6c-2.2,0-4-0.7-5.3-2
		c-1.4-1.3-2.1-3-2.1-5.1v-3.2c0-2.1,0.7-3.8,2-5.1c1.4-1.3,3.1-2,5.3-2c2.2,0,4,0.5,5.3,1.5s1.9,2.4,1.9,4.2l0,0.1h-3.1
		c0-1.1-0.3-2-1-2.6c-0.7-0.6-1.7-0.9-3-0.9c-1.3,0-2.3,0.5-3,1.4c-0.7,0.9-1.1,2.1-1.1,3.5v3.3c0,1.4,0.4,2.6,1.1,3.5
		c0.8,0.9,1.8,1.4,3.1,1.4c1.3,0,2.3-0.3,2.9-0.9s1-1.5,1-2.6H118.9z"/>
	<path fill="#CFCFD1" d="M137.4,5.9h-5.8v14.7h-3.2V5.9h-5.8V3.6h14.8V5.9z"/>
	<path fill="#868A8A" d="M168.5,20.6h-3.2L157,8.4l-0.1,0v12.2h-3.2v-17h3.2l8.4,12.3l0.1,0V3.6h3.2V20.6z"/>
	<path fill="#868A8A" d="M185.2,16.7h-6.7l-1.5,4h-3.3l6.6-17h3l6.5,17h-3.3L185.2,16.7z M179.4,14.3h5l-2.4-6.7h-0.1L179.4,14.3z"/>
	<path fill="#868A8A" d="M204.5,16.7L204.5,16.7L210,3.6h4v17h-3.2V8.4l-0.1,0l-5.2,12.2h-2.2l-5.3-12.5l-0.1,0v12.4h-3.2v-17h4.1
		L204.5,16.7z"/>
	<path fill="#868A8A" d="M231.2,13h-7.4v5.4h8.7v2.3h-11.9v-17h11.8v2.3h-8.6v4.8h7.4V13z"/>
</symbol>
</svg>