<?xml version="1.0" encoding="UTF-8"?><!DOCTYPE svg PUBLIC "-//W3C//DTD SVG 1.1//EN" "http://www.w3.org/Graphics/SVG/1.1/DTD/svg11.dtd"><svg xmlns="http://www.w3.org/2000/svg" xmlns:xlink="http://www.w3.org/1999/xlink"><defs/><symbol id="error" viewBox="0 0 80 80">
	<polygon fill="#ED5959" points="24.3,80 0,55.7 0,22.4 24.3,0 57.6,0 80,22.4 80,55.7 57.6,80"/>
	<circle fill="#FFFFFF" cx="40.1" cy="58.1" r="4.5"/>
	<path fill="#FFFFFF" d="M45.3,22.5c0-3.6-2.4-6.6-5.5-6.6s-5.3,3.4-5.3,7l3.3,24c0,1.3,0.9,2.4,2,2.4s2-1.1,2-2.4L45.3,22.5z"/>
</symbol><symbol id="info" viewBox="0 0 80 80">
	<path fill="#BABCBE" d="M40,9.6c16.7,0,30.2,13.6,30.2,30.2S56.7,70.1,40,70.1S9.8,56.5,9.8,39.8S23.3,9.6,40,9.6 M40,4.8
		c-19.3,0-35,15.7-35,35s15.7,35,35,35s35-15.7,35-35S59.3,4.8,40,4.8L40,4.8z"/>
	<circle fill="#7C807F" cx="40" cy="24.5" r="6"/>
	<path fill="#7C807F" d="M40.6,61.5h-1.2c-1.7,0-3-1.3-3-3V37.1c0-1.6,1.3-3,3-3h1.2c1.6,0,3,1.3,3,3v21.4
		C43.6,60.2,42.2,61.5,40.6,61.5z"/>
</symbol><symbol id="warning" viewBox="0 0 80 80">
	<path fill="none" stroke="#BABCBE" stroke-width="4" stroke-miterlimit="10" d="M435.1,599l30-45.1c1.9-2.9,6.2-2.9,8.2,0
		l30.2,45.1c2.2,3.3-0.2,7.6-4.1,7.6h-60.2C435.3,606.6,432.9,602.3,435.1,599z"/>
	<circle fill="#7C807F" cx="469.1" cy="596" r="3.3"/>
	<path fill="#7C807F" d="M473,569.8c0-2.7-1.8-4.8-4-4.8c-2.2,0-3.9,2.5-3.9,5.2l2.4,17.6c0,1,0.6,1.7,1.4,1.7
		c0.8,0,1.4-0.8,1.4-1.7L473,569.8z"/>
	<path fill="none" stroke="#BABCBE" stroke-width="4" stroke-miterlimit="10" d="M6.1,60l30-45.1c1.9-2.9,6.2-2.9,8.2,0L74.4,60
		c2.2,3.3-0.2,7.6-4.1,7.6H10.2C6.3,67.6,3.9,63.3,6.1,60z"/>
	<circle fill="#7C807F" cx="40.1" cy="57" r="3.3"/>
	<path fill="#7C807F" d="M44,30.8c0-2.7-1.8-4.8-4-4.8c-2.2,0-3.9,2.5-3.9,5.2l2.4,17.6c0,1,0.6,1.7,1.4,1.7s1.4-0.8,1.4-1.7
		L44,30.8z"/>
</symbol></svg>